<svg xmlns="http://www.w3.org/2000/svg" viewBox="0 0 1200 630" width="1200" height="630" role="img" aria-label="AI CRM vs a Traditional One">
  <!--
    Generated by scripts/make-brand-headers.mjs. Do not hand-edit; change the
    spec and re-run.

    Abstract shapes only. No fabricated names, figures, interface text or
    people, and no competitor named inside the artwork.
  -->
  <defs>
    <linearGradient id="g" x1="0" y1="0" x2="1" y2="1">
      <stop offset="0%" stop-color="#0B2540"/>
      <stop offset="100%" stop-color="#071A2E"/>
    </linearGradient>
    <radialGradient id="b" cx="0.82" cy="0.18" r="0.55">
      <stop offset="0%" stop-color="#D7714E" stop-opacity="0.28"/>
      <stop offset="100%" stop-color="#D7714E" stop-opacity="0"/>
    </radialGradient>
  </defs>

  <rect width="1200" height="630" fill="url(#g)"/>
  <rect width="1200" height="630" fill="url(#b)"/>

  <text x="72" y="86" font-family="Inter, Helvetica Neue, Arial, sans-serif" font-size="19"
        font-weight="700" letter-spacing="3.4" fill="#D7714E">REALTORDESK AI</text>

  <text x="72" y="238" font-family="Georgia, Times New Roman, serif" font-size="66"
        font-weight="700" fill="#FFFFFF">AI CRM vs a</text>
  <text x="72" y="312" font-family="Georgia, Times New Roman, serif" font-size="66"
        font-weight="700" fill="#FFFFFF">Traditional One</text>

  <rect x="72" y="348" width="86" height="5" rx="2.5" fill="#D7714E"/>

  <text x="72" y="400" font-family="Inter, Helvetica Neue, Arial, sans-serif"
        font-size="22" fill="#AFC2D6">Where the difference shows up, and</text>
  <text x="72" y="432" font-family="Inter, Helvetica Neue, Arial, sans-serif"
        font-size="22" fill="#AFC2D6">where it does not.</text>

  <g transform="translate(676 158)">
    <g>
      <rect x="0" y="0" width="196" height="238" rx="18" fill="#FFFFFF" fill-opacity="0.06"/>
      <rect x="26" y="44" width="144" height="9" rx="4.5" fill="#FFFFFF" fill-opacity="0.26"/>
      <rect x="26" y="86" width="122" height="9" rx="4.5" fill="#FFFFFF" fill-opacity="0.21000000000000002"/>
      <rect x="26" y="128" width="100" height="9" rx="4.5" fill="#FFFFFF" fill-opacity="0.16"/>
      <rect x="26" y="170" width="78" height="9" rx="4.5" fill="#FFFFFF" fill-opacity="0.10999999999999999"/>
      <text x="0" y="266" font-family="Inter, Helvetica Neue, Arial, sans-serif"
            font-size="15" fill="#7E93AA">Traditional</text>
    </g>
    <g transform="translate(232 -14)">
      <rect x="0" y="0" width="196" height="266" rx="18" fill="#FFFFFF"/>
      <rect x="26" y="34" width="64" height="9" rx="4.5" fill="#D7714E"/>
      <rect x="26" y="72" width="144" height="9" rx="4.5" fill="#0B2540" fill-opacity="0.7"/>
      <rect x="26" y="114" width="128" height="9" rx="4.5" fill="#0B2540" fill-opacity="0.57"/>
      <rect x="26" y="156" width="112" height="9" rx="4.5" fill="#0B2540" fill-opacity="0.43999999999999995"/>
      <rect x="26" y="198" width="96" height="9" rx="4.5" fill="#0B2540" fill-opacity="0.30999999999999994"/>
      <text x="0" y="294" font-family="Inter, Helvetica Neue, Arial, sans-serif"
            font-size="15" font-weight="600" fill="#E8A98F">AI-assisted</text>
    </g>
  </g>
</svg>
